<svg width="20" height="20" viewBox="0 0 20 20" fill="none" xmlns="http://www.w3.org/2000/svg">
<path d="M4.68431 12.469L5.60164 12.6126C6.27882 12.7187 6.76242 13.3389 6.71255 14.0376L6.64497 14.9847C6.62528 15.2606 6.77226 15.5204 7.01571 15.6405L7.69419 15.9748C7.93764 16.095 8.22832 16.05 8.42714 15.8627L9.10891 15.2183C9.61154 14.7431 10.3871 14.7431 10.8904 15.2183L11.5722 15.8627C11.771 16.0507 12.0611 16.095 12.3051 15.9748L12.9849 15.6399C13.2277 15.5204 13.3741 15.2613 13.3544 14.9861L13.2868 14.0376C13.2369 13.3389 13.7205 12.7187 14.3977 12.6126L15.315 12.469C15.5821 12.4273 15.7973 12.2226 15.8577 11.9528L16.025 11.2023C16.0854 10.9325 15.9784 10.6526 15.7553 10.4969L14.9896 9.96056C14.4246 9.56453 14.252 8.79127 14.5932 8.1838L15.0558 7.36086C15.1904 7.12123 15.1681 6.82119 14.9994 6.60505L14.5302 6.00296C14.3616 5.78682 14.0808 5.69754 13.8222 5.77876L12.9351 6.05666C12.2796 6.26205 11.5807 5.91771 11.3288 5.26594L10.9889 4.38461C10.8891 4.12686 10.6457 3.9577 10.3747 3.95838L9.6227 3.96039C9.3517 3.96106 9.10891 4.13155 9.01048 4.38998L8.67912 5.26124C8.42977 5.91704 7.72766 6.26407 7.07017 6.05733L6.14627 5.76735C5.88708 5.68546 5.60493 5.77541 5.43629 5.99289L4.9704 6.59566C4.80176 6.81381 4.78142 7.11452 4.91856 7.35415L5.39167 8.1791C5.7401 8.78724 5.56949 9.56788 5.00124 9.96593L4.24467 10.4962C4.02157 10.6526 3.91461 10.9325 3.97498 11.2017L4.14231 11.9521C4.20202 12.2226 4.41724 12.4273 4.68431 12.469Z" stroke="#ADA9BB" stroke-width="1.5" stroke-linecap="round" stroke-linejoin="round"/>
<path d="M11.3259 8.67415C12.058 9.4063 12.058 10.5938 11.3259 11.3259C10.5937 12.0581 9.40626 12.0581 8.67411 11.3259C7.94196 10.5938 7.94196 9.4063 8.67411 8.67415C9.40626 7.942 10.5937 7.942 11.3259 8.67415Z" stroke="#ADA9BB" stroke-width="1.5" stroke-linecap="round" stroke-linejoin="round"/>
</svg>
