<svg width="20" height="20" viewBox="0 0 20 20" fill="none" xmlns="http://www.w3.org/2000/svg">
<path d="M15.1893 8.75004C15.7127 9.39273 16.0274 10.2565 16.0274 11.3584C16.0274 12.3885 15.7524 13.2106 15.2889 13.8384C15.1208 14.0661 15.1562 14.597 15.2906 14.8461C15.6121 15.4424 15.0046 16.0959 14.3443 15.9445C13.85 15.8312 13.3315 15.6779 12.8778 15.4722C12.7117 15.3969 12.5283 15.3665 12.3471 15.387C12.1219 15.4125 11.8922 15.4251 11.6595 15.4251C10.5797 15.4251 9.56228 15.1538 8.78151 14.5834M12.6942 8.02507C12.6942 10.8297 10.6554 12.0918 8.32624 12.0918C8.09356 12.0918 7.86378 12.0792 7.63865 12.0537C7.45742 12.0332 7.274 12.0636 7.10789 12.1389C6.65418 12.3445 6.13572 12.4978 5.64145 12.6111C4.98112 12.7625 4.37361 12.1091 4.69515 11.5128C4.8295 11.2636 4.86492 10.7328 4.69681 10.505C4.23335 9.87722 3.95831 9.05519 3.95831 8.02507C3.95831 5.22045 5.99708 3.95837 8.32624 3.95837C10.6554 3.95837 12.6942 5.22045 12.6942 8.02507Z" stroke="#ADA9BB" stroke-width="1.5" stroke-linecap="round" stroke-linejoin="round"/>
</svg>
