<svg width="17" height="16" viewBox="0 0 17 16" fill="none" xmlns="http://www.w3.org/2000/svg">
<path d="M4.0975 13C5.24396 11.625 6.96982 10.75 8.90004 10.75C10.8303 10.75 12.5561 11.625 13.7026 13M16.15 8C16.15 12.0041 12.9041 15.25 8.89999 15.25C4.89592 15.25 1.64999 12.0041 1.64999 8C1.64999 3.99594 4.89592 0.75 8.89999 0.75C12.9041 0.75 16.15 3.99594 16.15 8ZM11.15 6C11.15 7.24264 10.1426 8.25 8.89999 8.25C7.65735 8.25 6.64999 7.24264 6.64999 6C6.64999 4.75736 7.65735 3.75 8.89999 3.75C10.1426 3.75 11.15 4.75736 11.15 6Z" stroke="#64748B" stroke-width="1.5" stroke-linecap="round" stroke-linejoin="round"/>
</svg>
