<svg width="18" height="20" viewBox="0 0 18 20" fill="none" xmlns="http://www.w3.org/2000/svg">
<path d="M1.5 8.33329C1.5 5.19079 1.5 3.61913 2.47667 2.64329C3.45333 1.66746 5.02417 1.66663 8.16667 1.66663H9.83333C12.9758 1.66663 14.5475 1.66663 15.5233 2.64329C16.4992 3.61996 16.5 5.19079 16.5 8.33329V11.6666C16.5 14.8091 16.5 16.3808 15.5233 17.3566C14.5467 18.3325 12.9758 18.3333 9.83333 18.3333H8.16667C5.02417 18.3333 3.4525 18.3333 2.47667 17.3566C1.50083 16.38 1.5 14.8091 1.5 11.6666V8.33329Z" stroke="#ADA9BB" stroke-width="1.5"/>
<path d="M5.66667 8.33325H12.3333M5.66667 11.6666H9.83333" stroke="#ADA9BB" stroke-width="1.5" stroke-linecap="round"/>
</svg>
