<svg width="20" height="20" viewBox="0 0 20 20" fill="none" xmlns="http://www.w3.org/2000/svg">
<path d="M8.33333 8.33329C10.1743 8.33329 11.6667 6.84091 11.6667 4.99996C11.6667 3.15901 10.1743 1.66663 8.33333 1.66663C6.49238 1.66663 5 3.15901 5 4.99996C5 6.84091 6.49238 8.33329 8.33333 8.33329Z" stroke="#ADA9BB" stroke-width="1.5"/>
<path d="M8.33333 17.4999C11.555 17.4999 14.1667 16.0075 14.1667 14.1666C14.1667 12.3256 11.555 10.8333 8.33333 10.8333C5.11167 10.8333 2.5 12.3256 2.5 14.1666C2.5 16.0075 5.11167 17.4999 8.33333 17.4999Z" stroke="#ADA9BB" stroke-width="1.5"/>
<path d="M15.8333 1.66663C15.8333 1.66663 17.5 2.66663 17.5 4.99996C17.5 7.33329 15.8333 8.33329 15.8333 8.33329M14.1667 3.33329C14.1667 3.33329 15 3.83329 15 4.99996C15 6.16663 14.1667 6.66663 14.1667 6.66663" stroke="#ADA9BB" stroke-width="1.5" stroke-linecap="round"/>
</svg>
